<?xml version="1.0" encoding="utf-8"?>
<!-- Generator: Adobe Illustrator 21.0.2, SVG Export Plug-In . SVG Version: 6.00 Build 0)  -->
<svg version="1.0" id="CNH" xmlns="http://www.w3.org/2000/svg" xmlns:xlink="http://www.w3.org/1999/xlink" x="0px" y="0px"
	 viewBox="0 0 60.8 50" enable-background="new 0 0 60.8 50" xml:space="preserve">
<path fill="#FFFFFF" d="M0,0v30.3h60.8V0H0z M9.5,20.7c1.2,1.2,2.7,1.9,4.6,1.9c1.6,0,3.2-0.6,4.8-1.9l0.1,0.1
	c-0.1,0.4-0.2,0.9-0.2,1.3c-0.4,0.3-1.1,0.6-2,0.9c-0.9,0.3-1.9,0.4-2.8,0.4c-2.7,0-4.8-0.8-6.3-2.3c-1.5-1.5-2.3-3.5-2.3-6
	c0-2.6,0.8-4.6,2.4-6.1c1.6-1.5,3.7-2.2,6.4-2.2c1.6,0,3.3,0.4,5,1.1c-0.2,0.4-0.3,1-0.5,1.8l-0.2,0c-1.4-1.4-2.8-2.1-4.4-2.1
	c-2,0-3.6,0.6-4.7,1.9c-1.2,1.3-1.7,3.1-1.7,5.5C7.7,17.6,8.3,19.5,9.5,20.7z M35.7,23.5h-0.4c-3-3.6-7-7.9-11.8-12.9
	c0,6.8,0.1,11,0.2,12.6c-0.2-0.1-0.4-0.1-0.6-0.1c-0.2,0-0.5,0-0.7,0.1c0.1-3.4,0.2-6.9,0.2-10.5c0-3,0-5-0.1-5.9h0.4
	c4.6,5.1,8.5,9.3,11.7,12.6v-3.7c0-3-0.1-5.9-0.2-8.6c0.3,0.1,0.5,0.1,0.7,0.1c0.2,0,0.4,0,0.6-0.1c-0.1,3.7-0.2,6.4-0.2,8.2
	C35.7,18.5,35.7,21.2,35.7,23.5z M54.3,23.3c-0.6-0.1-0.9-0.1-1.2-0.1c-0.4,0-0.8,0-1.2,0.1c0.1-1.9,0.2-3.8,0.2-5.7v-2.5
	C50.7,15,49,15,47.3,15c-1.6,0-3.2,0-4.9,0.1v2.5c0,1.3,0.1,3.2,0.2,5.6c-0.6-0.1-0.9-0.1-1.2-0.1c-0.4,0-0.8,0-1.2,0.1
	c0.1-1.6,0.2-3.5,0.2-5.6v-4.9v-0.7c0-1.7-0.1-3.3-0.2-4.9c0.4,0.1,0.8,0.1,1.2,0.1c0.4,0,0.8,0,1.1-0.1c-0.1,2.2-0.2,3.9-0.2,5V14
	c1.6,0,3.2,0.1,4.9,0.1c1.6,0,3.2,0,4.9-0.1v-1.9c0-2.3-0.1-4-0.2-5c0.5,0.1,0.9,0.1,1.2,0.1c0.4,0,0.8,0,1.1-0.1
	c-0.1,2.9-0.2,4.8-0.2,5.6v4.9C54.1,18.8,54.2,20.7,54.3,23.3z"/>
<path fill="#FFFFFF" d="M4.7,37.1c-0.4-0.4-0.9-0.6-1.4-0.6c-0.6,0-1.1,0.2-1.5,0.6c-0.4,0.4-0.5,1-0.5,1.7c0,0.8,0.2,1.3,0.5,1.7
	c0.4,0.4,0.8,0.6,1.4,0.6c0.5,0,1-0.2,1.5-0.6l0,0c0,0.1-0.1,0.3-0.1,0.4c-0.1,0.1-0.3,0.2-0.6,0.3c-0.3,0.1-0.6,0.1-0.9,0.1
	c-0.8,0-1.5-0.2-1.9-0.7c-0.5-0.5-0.7-1.1-0.7-1.9c0-0.8,0.2-1.4,0.8-1.9c0.5-0.5,1.2-0.7,2-0.7c0.5,0,1,0.1,1.6,0.3
	C4.9,36.6,4.8,36.8,4.7,37.1L4.7,37.1z"/>
<path fill="#FFFFFF" d="M5.4,39.5c0-0.6,0.2-1,0.5-1.3c0.3-0.3,0.7-0.5,1.3-0.5c0.5,0,0.9,0.2,1.3,0.5c0.3,0.3,0.5,0.8,0.5,1.3
	c0,0.6-0.2,1-0.5,1.3c-0.3,0.3-0.7,0.5-1.3,0.5c-0.6,0-1-0.2-1.3-0.5C5.6,40.5,5.4,40.1,5.4,39.5z M6.1,39.5c0,0.5,0.1,0.9,0.3,1.2
	c0.2,0.3,0.5,0.4,0.8,0.4c0.4,0,0.6-0.1,0.8-0.4c0.2-0.3,0.3-0.7,0.3-1.2c0-0.5-0.1-0.9-0.3-1.2c-0.2-0.3-0.5-0.4-0.8-0.4
	C6.4,37.9,6.1,38.5,6.1,39.5z"/>
<path fill="#FFFFFF" d="M9.7,41.3c0-0.4,0.1-0.8,0.1-1.3v-0.9c0-0.6,0-1-0.1-1.3c0.1,0,0.2,0,0.3,0c0.1,0,0.2,0,0.3,0
	c0,0.2,0,0.4,0,0.6c0.3-0.5,0.6-0.7,1.1-0.7c0.3,0,0.5,0.1,0.7,0.2c0.2,0.1,0.3,0.3,0.4,0.5c0.2-0.5,0.6-0.7,1.2-0.7
	c0.7,0,1.1,0.4,1.1,1.1c0,0.2,0,0.4,0,0.8c0,0.4,0,0.6,0,0.8c0,0.1,0,0.4,0.1,0.8c-0.1,0-0.2,0-0.3,0c-0.1,0-0.2,0-0.3,0
	c0-0.6,0.1-1.3,0.1-2.2c0-0.3-0.1-0.6-0.2-0.7c-0.1-0.2-0.3-0.2-0.6-0.2c-0.3,0-0.5,0.1-0.7,0.2c-0.1,0.1-0.2,0.3-0.2,0.4
	c0,0.2,0,0.6,0,1.3c0,0.4,0,0.8,0.1,1.2c-0.1,0-0.2,0-0.3,0c-0.1,0-0.2,0-0.3,0c0-0.7,0.1-1.2,0.1-1.6c0-0.5,0-0.8,0-0.9
	c0-0.1-0.1-0.3-0.2-0.4c-0.1-0.2-0.3-0.2-0.5-0.2c-0.6,0-0.9,0.4-0.9,1.2V40c0,0.4,0,0.8,0.1,1.3c-0.1,0-0.2,0-0.3,0
	C9.9,41.2,9.8,41.2,9.7,41.3z"/>
<path fill="#FFFFFF" d="M15.8,36.6c0-0.1,0-0.2,0.1-0.3c0.1-0.1,0.2-0.1,0.3-0.1c0.1,0,0.2,0,0.3,0.1c0.1,0.1,0.1,0.2,0.1,0.3
	c0,0.1,0,0.2-0.1,0.3c-0.1,0.1-0.2,0.1-0.3,0.1c-0.1,0-0.2,0-0.3-0.1C15.9,36.7,15.8,36.7,15.8,36.6z M15.9,41.3
	c0-0.4,0.1-0.8,0.1-1.3v-0.9c0-0.6,0-1-0.1-1.3c0.1,0,0.2,0,0.3,0c0.1,0,0.2,0,0.3,0c0,0.4-0.1,0.8-0.1,1.4V40c0,0.3,0,0.7,0.1,1.3
	c-0.1,0-0.3,0-0.3,0C16.1,41.2,16,41.2,15.9,41.3z"/>
<path fill="#FFFFFF" d="M19.5,37.9c-0.1,0.1-0.1,0.3-0.2,0.5l-0.1,0C19.2,38.1,19,38,18.7,38c-0.2,0-0.3,0.1-0.4,0.2
	c-0.1,0.1-0.2,0.3-0.2,0.4c0,0.3,0.1,0.4,0.4,0.5c0.2,0.1,0.4,0.1,0.6,0.2c0.2,0.1,0.4,0.2,0.5,0.3c0.1,0.1,0.2,0.3,0.2,0.5
	c0,0.3-0.1,0.6-0.4,0.8c-0.3,0.2-0.6,0.3-0.9,0.3c-0.3,0-0.6-0.1-0.9-0.2c0.1-0.1,0.1-0.3,0.1-0.5l0.1,0c0.2,0.3,0.4,0.5,0.8,0.5
	c0.2,0,0.4-0.1,0.5-0.2c0.1-0.1,0.2-0.3,0.2-0.5c0-0.1,0-0.3-0.1-0.3c-0.1-0.1-0.2-0.2-0.4-0.2c-0.3-0.1-0.5-0.2-0.6-0.2
	c-0.4-0.2-0.5-0.4-0.5-0.8c0-0.3,0.1-0.6,0.3-0.8c0.2-0.2,0.5-0.3,0.9-0.3c0.1,0,0.2,0,0.3,0C19.2,37.8,19.3,37.8,19.5,37.9z"/>
<path fill="#FFFFFF" d="M20.7,36.6c0-0.1,0-0.2,0.1-0.3c0.1-0.1,0.2-0.1,0.3-0.1c0.1,0,0.2,0,0.3,0.1c0.1,0.1,0.1,0.2,0.1,0.3
	c0,0.1,0,0.2-0.1,0.3c-0.1,0.1-0.2,0.1-0.2,0.1c-0.1,0-0.2,0-0.3-0.1C20.7,36.7,20.7,36.7,20.7,36.6z M20.7,41.3
	c0-0.4,0.1-0.8,0.1-1.3v-0.9c0-0.6,0-1-0.1-1.3c0.1,0,0.2,0,0.3,0c0.1,0,0.2,0,0.3,0c0,0.4-0.1,0.8-0.1,1.4V40c0,0.3,0,0.7,0.1,1.3
	c-0.1,0-0.3,0-0.3,0C21,41.2,20.9,41.2,20.7,41.3z"/>
<path fill="#FFFFFF" d="M22.3,39.5c0-0.6,0.2-1,0.5-1.3c0.3-0.3,0.7-0.5,1.3-0.5c0.5,0,0.9,0.2,1.3,0.5c0.3,0.3,0.5,0.8,0.5,1.3
	c0,0.6-0.2,1-0.5,1.3c-0.3,0.3-0.7,0.5-1.3,0.5c-0.6,0-1-0.2-1.3-0.5C22.4,40.5,22.3,40.1,22.3,39.5z M22.9,39.5
	c0,0.5,0.1,0.9,0.3,1.2c0.2,0.3,0.5,0.4,0.8,0.4c0.4,0,0.7-0.1,0.8-0.4c0.2-0.3,0.3-0.7,0.3-1.2c0-0.5-0.1-0.9-0.3-1.2
	c-0.2-0.3-0.5-0.4-0.8-0.4C23.3,37.9,22.9,38.5,22.9,39.5z M23.8,37.2h-0.3l1.1-1.1l0-0.1c0.1-0.1,0.2-0.1,0.3-0.1
	c0.1,0,0.1,0,0.2,0.1c0,0,0.1,0.1,0.1,0.2c0,0.1-0.1,0.2-0.3,0.3L23.8,37.2z"/>
<path fill="#FFFFFF" d="M26.6,41.3c0-0.4,0.1-0.8,0.1-1.3v-0.9c0-0.6,0-1-0.1-1.3c0.1,0,0.2,0,0.3,0c0.1,0,0.2,0,0.3,0
	c0,0.3,0,0.5,0,0.6c0.2-0.2,0.3-0.4,0.5-0.5c0.2-0.1,0.4-0.2,0.7-0.2c0.8,0,1.2,0.4,1.2,1.3c0,0.1,0,0.3,0,0.7c0,0.3,0,0.5,0,0.7
	c0,0.2,0,0.5,0.1,0.9c-0.1,0-0.2,0-0.3,0c-0.1,0-0.2,0-0.3,0c0-0.8,0.1-1.4,0.1-1.9c0-0.3,0-0.5-0.1-0.7c0-0.1-0.1-0.3-0.2-0.4
	c-0.1-0.1-0.3-0.2-0.5-0.2c-0.7,0-1,0.4-1,1.2V40c0,0.4,0,0.8,0.1,1.3c-0.1,0-0.2,0-0.3,0C26.9,41.2,26.8,41.2,26.6,41.3z"/>
<path fill="#FFFFFF" d="M32.8,41.3c0-1,0.1-2.1,0.1-3.3c0-0.9,0-1.5,0-1.8H33c1.4,1.6,2.6,2.9,3.6,3.9h0v-1.1c0-0.9,0-1.8,0-2.7
	c0.1,0,0.2,0,0.2,0c0.1,0,0.1,0,0.2,0c0,1.1-0.1,2-0.1,2.5c0,1,0,1.8,0,2.5h-0.1c-0.9-1.1-2.2-2.4-3.6-4h0c0,2.1,0,3.4,0.1,3.9
	c-0.1,0-0.1,0-0.2,0C33,41.2,32.9,41.2,32.8,41.3z"/>
<path fill="#FFFFFF" d="M38.3,38.5v-0.4c0.4-0.3,0.8-0.4,1.2-0.4c0.4,0,0.6,0.1,0.8,0.3c0.2,0.2,0.3,0.5,0.3,0.8c0,0.2,0,0.5,0,0.8
	c0,0.3,0,0.6,0,0.8c0,0.2,0,0.4,0.1,0.5c0,0.1,0.1,0.1,0.2,0.1c0,0,0.1,0,0.1,0l0,0.2c-0.2,0.1-0.3,0.1-0.4,0.1
	c-0.3,0-0.5-0.1-0.5-0.4c-0.3,0.3-0.7,0.5-1.1,0.5c-0.3,0-0.5-0.1-0.7-0.2c-0.2-0.2-0.3-0.4-0.3-0.7c0-0.2,0.1-0.4,0.2-0.6
	c0.1-0.2,0.3-0.3,0.6-0.3c0.1,0,0.4-0.1,0.7-0.1c0.2,0,0.4-0.1,0.5-0.1c0.1-0.1,0.2-0.2,0.2-0.3c0-0.3-0.1-0.5-0.2-0.7
	c-0.1-0.2-0.3-0.2-0.6-0.2C38.9,38,38.6,38.2,38.3,38.5L38.3,38.5z M40.1,39.4c0,0-0.2,0.1-0.4,0.1c-0.2,0.1-0.4,0.1-0.5,0.1
	c-0.4,0.1-0.5,0.3-0.5,0.7c0,0.2,0.1,0.4,0.2,0.5c0.1,0.1,0.3,0.2,0.5,0.2c0.4,0,0.6-0.2,0.9-0.5C40.1,40.3,40.1,39.9,40.1,39.4z"/>
<path fill="#FFFFFF" d="M44.4,38.5c-0.2-0.4-0.5-0.6-0.9-0.6c-0.8,0-1.2,0.5-1.2,1.6c0,0.5,0.1,0.8,0.3,1.1c0.2,0.3,0.5,0.4,0.9,0.4
	c0.4,0,0.8-0.2,1.1-0.5l0,0l0,0.3c-0.1,0.1-0.3,0.2-0.5,0.3c-0.2,0.1-0.5,0.1-0.7,0.1c-0.5,0-0.9-0.2-1.3-0.5
	c-0.3-0.3-0.5-0.8-0.5-1.3c0-0.5,0.2-1,0.5-1.3c0.3-0.3,0.8-0.5,1.4-0.5c0.3,0,0.5,0,0.7,0.1c0.2,0.1,0.3,0.1,0.4,0.2
	C44.6,38.2,44.5,38.4,44.4,38.5L44.4,38.5z"/>
<path fill="#FFFFFF" d="M45.6,36.6c0-0.1,0-0.2,0.1-0.3c0.1-0.1,0.2-0.1,0.3-0.1c0.1,0,0.2,0,0.3,0.1c0.1,0.1,0.1,0.2,0.1,0.3
	c0,0.1,0,0.2-0.1,0.3c-0.1,0.1-0.2,0.1-0.3,0.1c-0.1,0-0.2,0-0.3-0.1C45.6,36.7,45.6,36.7,45.6,36.6z M45.6,41.3
	c0-0.4,0.1-0.8,0.1-1.3v-0.9c0-0.6,0-1-0.1-1.3c0.1,0,0.2,0,0.3,0c0.1,0,0.2,0,0.3,0c0,0.4-0.1,0.8-0.1,1.4V40c0,0.3,0,0.7,0.1,1.3
	c-0.1,0-0.3,0-0.3,0C45.9,41.2,45.8,41.2,45.6,41.3z"/>
<path fill="#FFFFFF" d="M47.2,39.5c0-0.6,0.2-1,0.5-1.3c0.3-0.3,0.7-0.5,1.3-0.5c0.5,0,0.9,0.2,1.3,0.5c0.3,0.3,0.5,0.8,0.5,1.3
	c0,0.6-0.2,1-0.5,1.3c-0.3,0.3-0.7,0.5-1.3,0.5c-0.6,0-1-0.2-1.3-0.5C47.4,40.5,47.2,40.1,47.2,39.5z M47.8,39.5
	c0,0.5,0.1,0.9,0.3,1.2c0.2,0.3,0.5,0.4,0.8,0.4c0.4,0,0.6-0.1,0.8-0.4c0.2-0.3,0.3-0.7,0.3-1.2c0-0.5-0.1-0.9-0.3-1.2
	c-0.2-0.3-0.5-0.4-0.8-0.4C48.2,37.9,47.8,38.5,47.8,39.5z"/>
<path fill="#FFFFFF" d="M51.5,41.3c0-0.4,0.1-0.8,0.1-1.3v-0.9c0-0.6,0-1-0.1-1.3c0.1,0,0.2,0,0.3,0c0.1,0,0.2,0,0.3,0
	c0,0.3,0,0.5,0,0.6c0.2-0.2,0.3-0.4,0.5-0.5c0.2-0.1,0.4-0.2,0.7-0.2c0.8,0,1.2,0.4,1.2,1.3c0,0.1,0,0.3,0,0.7c0,0.3,0,0.5,0,0.7
	c0,0.2,0,0.5,0.1,0.9c-0.1,0-0.2,0-0.3,0c-0.1,0-0.2,0-0.3,0c0-0.8,0.1-1.4,0.1-1.9c0-0.3,0-0.5,0-0.7c0-0.1-0.1-0.3-0.2-0.4
	c-0.1-0.1-0.3-0.2-0.5-0.2c-0.7,0-1,0.4-1,1.2V40c0,0.4,0,0.8,0.1,1.3c-0.1,0-0.2,0-0.3,0C51.8,41.2,51.7,41.2,51.5,41.3z"/>
<path fill="#FFFFFF" d="M55.6,38.5v-0.4c0.4-0.3,0.8-0.4,1.2-0.4c0.4,0,0.6,0.1,0.8,0.3c0.2,0.2,0.3,0.5,0.3,0.8c0,0.2,0,0.5,0,0.8
	c0,0.3,0,0.6,0,0.8c0,0.2,0,0.4,0.1,0.5c0,0.1,0.1,0.1,0.2,0.1c0,0,0.1,0,0.1,0l0,0.2c-0.2,0.1-0.3,0.1-0.4,0.1
	c-0.3,0-0.5-0.1-0.5-0.4c-0.3,0.3-0.7,0.5-1.1,0.5c-0.3,0-0.5-0.1-0.7-0.2c-0.2-0.2-0.3-0.4-0.3-0.7c0-0.2,0.1-0.4,0.2-0.6
	c0.1-0.2,0.3-0.3,0.6-0.3c0.1,0,0.4-0.1,0.7-0.1c0.2,0,0.4-0.1,0.5-0.1c0.1-0.1,0.2-0.2,0.2-0.3c0-0.3-0.1-0.5-0.2-0.7
	c-0.1-0.2-0.3-0.2-0.6-0.2C56.2,38,55.9,38.2,55.6,38.5L55.6,38.5z M57.4,39.4c0,0-0.2,0.1-0.4,0.1c-0.2,0.1-0.4,0.1-0.5,0.1
	c-0.4,0.1-0.5,0.3-0.5,0.7c0,0.2,0.1,0.4,0.2,0.5c0.1,0.1,0.3,0.2,0.5,0.2c0.4,0,0.6-0.2,0.9-0.5C57.4,40.3,57.4,39.9,57.4,39.4z"/>
<path fill="#FFFFFF" d="M60,41.3c-0.1,0-0.2,0-0.3,0c-0.1,0-0.2,0-0.3,0c0-0.4,0.1-1.1,0.1-1.9v-1.5c0-0.9,0-1.6-0.1-2.1
	c0.1,0,0.3,0,0.3,0c0.1,0,0.2,0,0.3,0c0,0.4-0.1,1.1-0.1,2v1.5C59.9,40.1,59.9,40.7,60,41.3z"/>
<path fill="#FFFFFF" d="M6.1,44.4c0.1,0,0.2,0,0.3,0c0.1,0,0.2,0,0.3,0c0,0.7-0.1,1.9-0.1,3.6c0,0.2,0,0.9,0.1,1.9
	c-0.1,0-0.2,0-0.3,0c-0.1,0-0.2,0-0.3,0c0,0,0-0.2,0-0.4c0-0.2,0-0.3,0-0.4C5.9,49.7,5.5,50,4.9,50c-0.4,0-0.8-0.2-1.1-0.5
	c-0.3-0.3-0.4-0.8-0.4-1.3c0-0.5,0.1-0.9,0.4-1.3c0.3-0.3,0.7-0.5,1.1-0.5c0.5,0,0.9,0.3,1.1,0.8C6.2,45.6,6.2,44.7,6.1,44.4z
	 M4.1,48.3c0,0.5,0.1,0.9,0.3,1.1c0.2,0.3,0.4,0.4,0.7,0.4c0.3,0,0.6-0.1,0.8-0.4c0.2-0.3,0.3-0.7,0.3-1.2c0-0.4-0.1-0.8-0.3-1
	c-0.2-0.3-0.4-0.4-0.8-0.4c-0.3,0-0.6,0.1-0.8,0.4C4.2,47.4,4.1,47.8,4.1,48.3z"/>
<path fill="#FFFFFF" d="M8.1,48.2c0,0.1,0,0.1,0,0.2c0,0.4,0.1,0.7,0.3,1c0.2,0.3,0.5,0.4,0.9,0.4c0.4,0,0.8-0.2,1.1-0.5l0,0l0,0.3
	c-0.1,0.1-0.3,0.2-0.5,0.3C9.7,50,9.4,50,9.2,50c-0.5,0-0.9-0.2-1.3-0.5c-0.3-0.3-0.5-0.7-0.5-1.2c0-0.6,0.1-1.1,0.4-1.4
	c0.3-0.3,0.7-0.5,1.2-0.5c0.5,0,0.8,0.1,1.1,0.4c0.3,0.3,0.4,0.6,0.4,1.1c0,0.1,0,0.2,0,0.3c-0.7,0-1.2,0-1.3,0H9.1H8.9
	C8.8,48.1,8.5,48.1,8.1,48.2z M8.1,47.9c0.2,0,0.4,0,0.7,0h0.2h0.2c0.2,0,0.4,0,0.8,0c0-0.4-0.1-0.7-0.2-0.9
	c-0.2-0.2-0.4-0.3-0.7-0.3c-0.3,0-0.5,0.1-0.7,0.3C8.2,47.2,8.1,47.5,8.1,47.9z"/>
<path fill="#FFFFFF" d="M13.5,44.9c0.1,0,0.3,0,0.4,0c0.1,0,0.2,0,0.3,0c0,0.7-0.1,1.2-0.1,1.5v0.6c0.5,0,1,0,1.5,0c0.5,0,1,0,1.5,0
	v-0.6c0-0.7,0-1.2-0.1-1.5c0.2,0,0.3,0,0.4,0c0.1,0,0.2,0,0.3,0c0,0.9-0.1,1.5-0.1,1.7v1.5c0,0.4,0,0.9,0.1,1.7c-0.2,0-0.3,0-0.4,0
	c-0.1,0-0.3,0-0.4,0c0-0.6,0.1-1.2,0.1-1.8v-0.8c-0.5,0-1,0-1.5,0c-0.5,0-1,0-1.5,0v0.8c0,0.4,0,1,0.1,1.7c-0.2,0-0.3,0-0.4,0
	c-0.1,0-0.3,0-0.4,0c0-0.5,0.1-1.1,0.1-1.7v-1.5v-0.2C13.5,45.9,13.5,45.4,13.5,44.9z"/>
<path fill="#FFFFFF" d="M19.1,45.2c0-0.1,0-0.2,0.1-0.3c0.1-0.1,0.2-0.1,0.3-0.1c0.1,0,0.2,0,0.3,0.1c0.1,0.1,0.1,0.2,0.1,0.3
	c0,0.1,0,0.2-0.1,0.3c-0.1,0.1-0.2,0.1-0.2,0.1c-0.1,0-0.2,0-0.3-0.1C19.1,45.4,19.1,45.3,19.1,45.2z M19.1,49.9
	c0-0.4,0.1-0.8,0.1-1.3v-0.9c0-0.6,0-1-0.1-1.3c0.1,0,0.2,0,0.3,0c0.1,0,0.2,0,0.3,0c0,0.4-0.1,0.8-0.1,1.4v0.8c0,0.3,0,0.7,0.1,1.3
	c-0.1,0-0.3,0-0.3,0C19.4,49.9,19.2,49.9,19.1,49.9z"/>
<path fill="#FFFFFF" d="M23.4,44.4c0.1,0,0.2,0,0.3,0c0.1,0,0.2,0,0.3,0c0,0.7-0.1,1.9-0.1,3.6c0,0.2,0,0.9,0.1,1.9
	c-0.1,0-0.2,0-0.3,0s-0.2,0-0.3,0c0,0,0-0.2,0-0.4c0-0.2,0-0.3,0-0.4c-0.3,0.5-0.7,0.8-1.2,0.8c-0.4,0-0.8-0.2-1.1-0.5
	c-0.3-0.3-0.4-0.8-0.4-1.3c0-0.5,0.1-0.9,0.4-1.3c0.3-0.3,0.7-0.5,1.1-0.5c0.5,0,0.9,0.3,1.1,0.8C23.5,45.6,23.4,44.7,23.4,44.4z
	 M21.4,48.3c0,0.5,0.1,0.9,0.3,1.1c0.2,0.3,0.4,0.4,0.7,0.4c0.3,0,0.6-0.1,0.8-0.4c0.2-0.3,0.3-0.7,0.3-1.2c0-0.4-0.1-0.8-0.3-1
	c-0.2-0.3-0.4-0.4-0.8-0.4c-0.3,0-0.6,0.1-0.8,0.4C21.5,47.4,21.4,47.8,21.4,48.3z"/>
<path fill="#FFFFFF" d="M25,49.9c0-0.4,0.1-0.9,0.1-1.4v-0.8c0-0.1,0-0.6-0.1-1.3c0.1,0,0.2,0,0.3,0c0.1,0,0.2,0,0.3,0
	c0,0.2-0.1,0.5-0.1,0.7c0.3-0.5,0.6-0.8,1-0.8c0.1,0,0.2,0,0.2,0c0,0.1-0.1,0.3-0.1,0.6l0,0c-0.1-0.1-0.2-0.1-0.4-0.1
	c-0.2,0-0.4,0.1-0.5,0.3c-0.1,0.2-0.2,0.4-0.2,0.7v0.6c0,0.6,0,1.1,0.1,1.4c-0.1,0-0.2,0-0.3,0C25.2,49.9,25.1,49.9,25,49.9z"/>
<path fill="#FFFFFF" d="M27.1,48.2c0-0.6,0.2-1,0.5-1.3c0.3-0.3,0.7-0.5,1.3-0.5c0.5,0,0.9,0.2,1.3,0.5c0.3,0.3,0.5,0.8,0.5,1.3
	c0,0.6-0.2,1-0.5,1.3c-0.3,0.3-0.7,0.5-1.3,0.5c-0.6,0-1-0.2-1.3-0.5C27.3,49.2,27.1,48.7,27.1,48.2z M27.8,48.2
	c0,0.5,0.1,0.9,0.3,1.2c0.2,0.3,0.5,0.4,0.8,0.4c0.4,0,0.6-0.1,0.8-0.4c0.2-0.3,0.3-0.7,0.3-1.2c0-0.5-0.1-0.9-0.3-1.2
	c-0.2-0.3-0.5-0.4-0.8-0.4C28.1,46.6,27.8,47.2,27.8,48.2z"/>
<path fill="#FFFFFF" d="M34,47.2c-0.2-0.4-0.5-0.6-0.9-0.6c-0.8,0-1.2,0.5-1.2,1.6c0,0.5,0.1,0.8,0.3,1.1c0.2,0.3,0.5,0.4,0.9,0.4
	c0.4,0,0.8-0.2,1.1-0.5l0,0l0,0.3c-0.1,0.1-0.3,0.2-0.5,0.3C33.4,50,33.2,50,33,50c-0.5,0-0.9-0.2-1.3-0.5c-0.3-0.3-0.5-0.8-0.5-1.3
	c0-0.5,0.2-1,0.5-1.3c0.3-0.3,0.8-0.5,1.4-0.5c0.3,0,0.6,0,0.7,0.1c0.2,0.1,0.3,0.1,0.4,0.2C34.1,46.9,34.1,47.1,34,47.2L34,47.2z"
	/>
<path fill="#FFFFFF" d="M35.1,47.2v-0.4c0.4-0.3,0.8-0.4,1.2-0.4c0.4,0,0.6,0.1,0.8,0.3c0.2,0.2,0.3,0.5,0.3,0.8c0,0.2,0,0.5,0,0.8
	c0,0.3,0,0.6,0,0.8c0,0.2,0,0.4,0.1,0.5c0,0.1,0.1,0.1,0.2,0.1c0,0,0.1,0,0.1,0l0,0.2c-0.2,0.1-0.3,0.1-0.4,0.1
	c-0.3,0-0.5-0.1-0.5-0.4c-0.3,0.3-0.7,0.5-1.1,0.5c-0.3,0-0.5-0.1-0.7-0.2c-0.2-0.2-0.3-0.4-0.3-0.7c0-0.2,0.1-0.4,0.2-0.6
	c0.1-0.2,0.3-0.3,0.6-0.4c0.1,0,0.4-0.1,0.7-0.1c0.2,0,0.4-0.1,0.5-0.1c0.1,0,0.2-0.2,0.2-0.3c0-0.3-0.1-0.5-0.2-0.7
	c-0.1-0.2-0.3-0.2-0.6-0.2C35.7,46.7,35.4,46.9,35.1,47.2L35.1,47.2z M36.9,48.1c0,0-0.2,0.1-0.4,0.1c-0.2,0-0.4,0.1-0.5,0.1
	c-0.4,0.1-0.5,0.3-0.5,0.7c0,0.2,0.1,0.4,0.2,0.5c0.1,0.1,0.3,0.2,0.5,0.2c0.4,0,0.7-0.2,0.9-0.5C36.9,49,36.9,48.6,36.9,48.1z"/>
<path fill="#FFFFFF" d="M38.6,49.9c0-0.4,0.1-0.9,0.1-1.4v-0.8c0-0.1,0-0.6-0.1-1.3c0.1,0,0.2,0,0.3,0c0.1,0,0.2,0,0.3,0
	c0,0.2-0.1,0.5-0.1,0.7c0.3-0.5,0.6-0.8,1-0.8c0.1,0,0.2,0,0.2,0c0,0.1-0.1,0.3-0.1,0.6l0,0c-0.1-0.1-0.2-0.1-0.4-0.1
	c-0.2,0-0.4,0.1-0.5,0.3c-0.1,0.2-0.2,0.4-0.2,0.7v0.6c0,0.6,0,1.1,0.1,1.4c-0.1,0-0.2,0-0.3,0C38.9,49.9,38.8,49.9,38.6,49.9z"/>
<path fill="#FFFFFF" d="M40.9,44.4c0.1,0,0.2,0,0.3,0c0.1,0,0.2,0,0.3,0c0,0.8-0.1,1.7-0.1,2.8c0.3-0.5,0.7-0.8,1.2-0.8
	c0.4,0,0.8,0.2,1.1,0.5c0.3,0.3,0.4,0.7,0.4,1.2c0,0.5-0.2,1-0.5,1.4c-0.3,0.4-0.7,0.5-1.1,0.5c-0.2,0-0.5,0-0.6-0.1
	c-0.2-0.1-0.3-0.2-0.5-0.4c-0.2,0.2-0.4,0.3-0.5,0.4l-0.1,0c0-0.5,0.1-1.2,0.1-2.1v-1.3C41,45.7,41,45,40.9,44.4z M41.5,48.3
	c0,1,0.3,1.4,1,1.4c0.3,0,0.6-0.2,0.8-0.5c0.2-0.3,0.3-0.7,0.3-1.2c0-0.4-0.1-0.7-0.3-1c-0.2-0.3-0.4-0.4-0.7-0.4
	c-0.3,0-0.6,0.1-0.8,0.4C41.6,47.3,41.5,47.8,41.5,48.3z"/>
<path fill="#FFFFFF" d="M45.7,46.5c0,0.7-0.1,1.3-0.1,1.9c0,0.5,0.1,0.8,0.2,1c0.2,0.2,0.4,0.2,0.6,0.2c0.3,0,0.5-0.1,0.6-0.2
	c0.1-0.2,0.2-0.3,0.3-0.5c0-0.2,0-0.5,0-1c0-0.7,0-1.2-0.1-1.4c0.1,0,0.2,0,0.3,0c0.1,0,0.2,0,0.3,0c0,0.6-0.1,1.3-0.1,2.1
	c0,0.5,0,0.9,0.1,1.3c-0.1,0-0.3,0-0.3,0c0,0-0.1,0-0.3,0c0-0.2,0-0.4,0-0.7c-0.3,0.5-0.6,0.7-1.1,0.7c-0.8,0-1.2-0.4-1.2-1.3
	c0-0.1,0-0.2,0-0.5c0-0.3,0-0.5,0-0.6v-0.3c0-0.2,0-0.5-0.1-0.9c0.1,0,0.2,0,0.3,0C45.5,46.5,45.6,46.5,45.7,46.5z"/>
<path fill="#FFFFFF" d="M49.1,49.9c0-0.4,0.1-0.9,0.1-1.4v-0.8c0-0.1,0-0.6-0.1-1.3c0.1,0,0.2,0,0.3,0c0.1,0,0.2,0,0.3,0
	c0,0.2-0.1,0.5-0.1,0.7c0.3-0.5,0.6-0.8,1-0.8c0.1,0,0.2,0,0.2,0c0,0.1-0.1,0.3-0.1,0.6l0,0c-0.1-0.1-0.2-0.1-0.4-0.1
	c-0.2,0-0.4,0.1-0.5,0.3c-0.1,0.2-0.2,0.4-0.2,0.7v0.6c0,0.6,0,1.1,0.1,1.4c-0.1,0-0.2,0-0.3,0C49.3,49.9,49.2,49.9,49.1,49.9z"/>
<path fill="#FFFFFF" d="M51.2,48.2c0-0.6,0.2-1,0.5-1.3c0.3-0.3,0.7-0.5,1.3-0.5c0.5,0,1,0.2,1.3,0.5c0.3,0.3,0.5,0.8,0.5,1.3
	c0,0.6-0.2,1-0.5,1.3C53.9,49.8,53.5,50,53,50c-0.6,0-1-0.2-1.3-0.5C51.4,49.2,51.2,48.7,51.2,48.2z M51.9,48.2
	c0,0.5,0.1,0.9,0.3,1.2c0.2,0.3,0.5,0.4,0.8,0.4c0.4,0,0.6-0.1,0.8-0.4c0.2-0.3,0.3-0.7,0.3-1.2c0-0.5-0.1-0.9-0.3-1.2
	c-0.2-0.3-0.5-0.4-0.8-0.4C52.2,46.6,51.9,47.2,51.9,48.2z"/>
<path fill="#FFFFFF" d="M57.3,46.6c-0.1,0.1-0.1,0.3-0.2,0.5l-0.1,0c-0.1-0.3-0.3-0.5-0.6-0.5c-0.2,0-0.3,0.1-0.4,0.2
	c-0.1,0.1-0.2,0.3-0.2,0.4c0,0.3,0.1,0.4,0.4,0.5c0.2,0.1,0.4,0.1,0.6,0.2c0.2,0.1,0.4,0.2,0.5,0.3c0.1,0.1,0.2,0.3,0.2,0.5
	c0,0.3-0.1,0.6-0.4,0.8c-0.3,0.2-0.6,0.3-0.9,0.3c-0.3,0-0.6-0.1-0.9-0.2c0.1-0.2,0.1-0.3,0.1-0.5l0.1,0c0.2,0.4,0.4,0.5,0.8,0.5
	c0.2,0,0.4-0.1,0.5-0.2c0.1-0.1,0.2-0.3,0.2-0.5c0-0.1,0-0.3-0.1-0.3c-0.1-0.1-0.2-0.2-0.4-0.2c-0.3-0.1-0.5-0.2-0.6-0.2
	c-0.4-0.2-0.5-0.4-0.5-0.8c0-0.3,0.1-0.6,0.3-0.8c0.2-0.2,0.5-0.3,0.9-0.3c0.1,0,0.2,0,0.3,0C56.9,46.5,57.1,46.5,57.3,46.6z"/>
</svg>
