<svg id="stroke" xmlns="http://www.w3.org/2000/svg" viewBox="0 0 80 35"><defs><style>.cls-1{fill:#545454;}</style></defs><title>Icons</title><path class="cls-1" d="M40,34.3A12.17,12.17,0,0,1,27.84,22.14c0-7.58,10.21-19.72,11.37-21.08a1,1,0,0,1,1.58,0c.08.1.82,1,1.88,2.33a1,1,0,0,1,.21.76,1.1,1.1,0,0,1-.39.69,1.08,1.08,0,0,1-.64.22,1.05,1.05,0,0,1-.82-.4L40,3.35,39.45,4c-2.24,2.81-9.54,12.42-9.54,18.1a10.09,10.09,0,0,0,20.18,0c0-2.72-1.72-6.8-5-11.81A1,1,0,0,1,45,9.56a1,1,0,0,1,.44-.66,1,1,0,0,1,1.44.3c3.53,5.43,5.32,9.78,5.32,12.94A12.17,12.17,0,0,1,40,34.3Z"/></svg>