<svg id="stroke" xmlns="http://www.w3.org/2000/svg" viewBox="0 0 80 35"><defs><style>.cls-1{fill:#545454;}</style></defs><title>Icons</title><path class="cls-1" d="M52.17,34.56h0a2.06,2.06,0,0,0,0-3.24l-.56-.44V13.24h0a.66.66,0,0,0,.68-.63.65.65,0,0,0-.65-.68h0V4A2.05,2.05,0,0,0,53,2a2.09,2.09,0,0,0-2.11-2H28.54a2.09,2.09,0,0,0-2.1,2,2.07,2.07,0,0,0,1.4,2v7.92h0a.67.67,0,0,0-.68.64.66.66,0,0,0,.66.67h0v8.52h0a.66.66,0,1,0,0,1.31h0V31a2.06,2.06,0,0,0-1.4,2,2.09,2.09,0,0,0,2.1,2H50.9A2,2,0,0,0,52.17,34.56ZM27.75,2.06a.76.76,0,0,1,.75-.75H51a.75.75,0,0,1,0,1.5H49.55a.66.66,0,0,0,0,1.31h.75v7.81H29.16V4.12H46.75a.66.66,0,0,0,0-1.31H28.5A.76.76,0,0,1,27.75,2.06ZM50.89,33.69H28.53a.77.77,0,0,1-.78-.7.75.75,0,0,1,.75-.8H50.89a.75.75,0,0,1,.51.21h0a.73.73,0,0,1,0,1.08h0A.75.75,0,0,1,50.89,33.69Zm-.59-2.81H29.16V23.07H44.64a.66.66,0,1,0,0-1.31H29.16V13.24H50.3V30.88"/></svg>