<svg id="stroke" xmlns="http://www.w3.org/2000/svg" viewBox="0 0 80 35"><defs><style>.cls-1{fill:#545454;}</style></defs><title>Icons</title><path class="cls-1" d="M26,23.32a15.19,15.19,0,0,1,6.5-19V9.39H35V1.05H26.61V3.56h2.47a17.72,17.72,0,0,0,.09,28A17.91,17.91,0,0,0,37.3,35l.38-2.48A15.12,15.12,0,0,1,26,23.32Z"/><path class="cls-1" d="M56.35,24.28a17.73,17.73,0,0,0-5.53-20.8A17.91,17.91,0,0,0,42.69,0l-.38,2.48a15.19,15.19,0,0,1,5.23,28.21V25.61H45V34h8.34V31.44H50.92A17.48,17.48,0,0,0,56.35,24.28Z"/><path class="cls-1" d="M42.34,13.73h2.51A4.85,4.85,0,0,0,41.25,9V8H38.74V9a4.85,4.85,0,0,0-3.6,4.69,4.55,4.55,0,0,0,3.39,4.62l.21.07v4.83a2.34,2.34,0,0,1-1.09-2H35.14A4.85,4.85,0,0,0,38.74,26V27h2.51V26a4.85,4.85,0,0,0,3.6-4.69,4.55,4.55,0,0,0-3.39-4.62l-.21-.07V11.75A2.34,2.34,0,0,1,42.34,13.73Zm-3.6,2a2,2,0,0,1-1.09-2,2.34,2.34,0,0,1,1.09-2Zm3.6,5.53a2.34,2.34,0,0,1-1.09,2v-4A2,2,0,0,1,42.34,21.27Z"/></svg>