<svg id="stroke" xmlns="http://www.w3.org/2000/svg" viewBox="0 0 80 35"><defs><style>.cls-1{fill:#545454;}</style></defs><title>Icons</title><path class="cls-1" d="M56.22,24c-1.1-2.29-5-5.47-8.83-8.55-2.12-1.71-4.12-3.33-5.4-4.61a1.17,1.17,0,0,0-1.22-.27c-.79.29-1.27.51-1.65.68a3.93,3.93,0,0,1-1.57.43,1.13,1.13,0,0,0-.85.51c-1.65,2.46-3.36,2.25-4.5,1.87-.37-.12-.43-.28-.47-.43-.24-1,1-3.41,2.58-5,3.79-3.79,5.75-4.74,9.88-2.9,4.68,2.1,9.38,3.74,9.43,3.75a1.16,1.16,0,0,0,1.48-.71,1.17,1.17,0,0,0-.72-1.49S49.73,5.66,45.14,3.6C39.79,1.21,36.86,2.78,32.66,7c-1.59,1.59-3.76,4.82-3.2,7.19a2.87,2.87,0,0,0,2,2.1,5.84,5.84,0,0,0,6.86-2.34,6.19,6.19,0,0,0,1.75-.56l.82-.35c1.33,1.25,3.13,2.71,5,4.25C49.35,20,53.24,23.19,54.11,25a1.36,1.36,0,0,1-.34,1.75,1.29,1.29,0,0,1-1.44.28,1.17,1.17,0,0,0-1.26,0,1.16,1.16,0,0,0-.56,1.13,1.4,1.4,0,0,1-.9,1.31,1.77,1.77,0,0,1-1.81,0,1.21,1.21,0,0,0-1.22-.24,1.17,1.17,0,0,0-.74,1A2.21,2.21,0,0,1,44.46,32a1.23,1.23,0,0,1-1.34-.2,1.16,1.16,0,0,0-1.06-.28,1.17,1.17,0,0,0-.82.74c-.05.12-.15.4-1.24.4a6.78,6.78,0,0,1-2.86-1c-.82-.54-5.95-4.37-10.39-8.09-.62-.52-1.7-1.65-2.65-2.64s-1.62-1.68-2-2a1.16,1.16,0,0,0-1.5,1.78c.36.31,1.06,1.05,1.83,1.85,1,1.09,2.12,2.22,2.84,2.82C29.6,29,34.82,33,35.86,33.64A8.9,8.9,0,0,0,40,35a4,4,0,0,0,2.65-.78,3.62,3.62,0,0,0,2.65,0A4.59,4.59,0,0,0,47.73,32a4.5,4.5,0,0,0,2.93-.42,4,4,0,0,0,2-2,3.79,3.79,0,0,0,2.67-1A3.71,3.71,0,0,0,56.22,24Z"/><path class="cls-1" d="M35.33,4.67H24.83a1.17,1.17,0,0,0,0,2.33h10.5a1.17,1.17,0,1,0,0-2.33Z"/><path class="cls-1" d="M59.64,21.52A1.16,1.16,0,0,0,58,21.2L54.6,23.49a1.17,1.17,0,0,0,.66,2.13,1.2,1.2,0,0,0,.65-.19l3.41-2.3A1.17,1.17,0,0,0,59.64,21.52Z"/><path class="cls-1" d="M52.39,27.08c-.83-.66-4.57-4.48-6.88-6.89a1.17,1.17,0,0,0-1.68,1.62c.6.62,5.89,6.14,7.12,7.11a1.13,1.13,0,0,0,.72.25,1.2,1.2,0,0,0,.92-.45A1.17,1.17,0,0,0,52.39,27.08Z"/><path class="cls-1" d="M47.73,29.42c-1.4-1.11-4.91-4.85-5.7-5.71a1.18,1.18,0,0,0-1.65-.07,1.16,1.16,0,0,0-.07,1.65c0,.05,4.23,4.57,6,6a1.19,1.19,0,0,0,.73.25,1.16,1.16,0,0,0,.91-.44A1.17,1.17,0,0,0,47.73,29.42Z"/><path class="cls-1" d="M43.09,31.77c-1.67-1.4-5.07-5-5.74-5.73a1.16,1.16,0,1,0-1.7,1.59c1,1,4.21,4.48,5.93,5.93a1.17,1.17,0,1,0,1.51-1.79Z"/><path class="cls-1" d="M25.64,2.65C23.64.76,15.64.14,13.24,0a1.14,1.14,0,0,0-.87.32,1.13,1.13,0,0,0-.37.85v21a1.16,1.16,0,0,0,1.17,1.16h7a1.15,1.15,0,0,0,1.1-.8C21.44,22,25.47,9.67,26,3.6A1.15,1.15,0,0,0,25.64,2.65ZM19.31,21h-5V2.42c3.75.29,7.8.94,9.27,1.65C23,9.18,20.18,18.26,19.31,21Z"/><path class="cls-1" d="M66.83,2.33c-9.16,0-14.24,2.35-14.45,2.45a1.14,1.14,0,0,0-.62.72,1.18,1.18,0,0,0,.12,1c1.45,2.32,6,15.21,6.83,18.36a1.16,1.16,0,0,0,1.12.86h7A1.17,1.17,0,0,0,68,24.5V3.5A1.17,1.17,0,0,0,66.83,2.33Zm-1.16,21h-5c-1.11-3.6-4.38-13-6.2-16.88A38.2,38.2,0,0,1,65.67,4.68Z"/></svg>