<?xml version="1.0" encoding="UTF-8" standalone="no"?>
<svg
   xmlns:dc="http://purl.org/dc/elements/1.1/"
   xmlns:cc="http://creativecommons.org/ns#"
   xmlns:rdf="http://www.w3.org/1999/02/22-rdf-syntax-ns#"
   xmlns:svg="http://www.w3.org/2000/svg"
   xmlns="http://www.w3.org/2000/svg"
   viewBox="0 0 24 24"
   height="24"
   width="24"
   version="1.1"
   id="svg4873">
  <metadata
     id="metadata4879">
    <rdf:RDF>
      <cc:Work
         rdf:about="">
        <dc:format>image/svg+xml</dc:format>
        <dc:type
           rdf:resource="http://purl.org/dc/dcmitype/StillImage" />
        <dc:title></dc:title>
      </cc:Work>
    </rdf:RDF>
  </metadata>
  <defs
     id="defs4877" />
  <path
     id="path5423"
     d="m 21.152976,23.754024 c -0.666851,-0.41897 -6.102434,-5.991737 -6.189899,-6.346112 -0.08401,-0.340449 -0.33809,-0.442335 -0.490086,-0.196532 -0.142556,0.230522 -1.999319,1.026103 -2.961697,1.269014 -1.25516,0.316815 -3.2437225,0.295469 -4.5111609,-0.0484 C 3.8075775,17.565755 1.4090126,15.287345 0.4032967,12.165619 -0.05691309,10.737139 -0.13172881,8.6817436 0.22258383,7.2009315 1.065517,3.6780011 3.6961299,1.0569253 7.2388951,0.2100697 c 1.3740048,-0.3284422 3.5149369,-0.2649633 4.8181539,0.1428451 3.516293,1.1003478 5.85833,3.7632019 6.554344,7.4521454 0.395958,2.0986272 -0.156879,4.9071768 -1.274786,6.4762308 -0.325908,0.457432 -0.31132,0.569293 0.08703,0.667453 0.369107,0.09101 6.110533,5.711224 6.406444,6.271275 0.252715,0.478271 0.218472,1.414709 -0.06897,1.885868 -0.512824,0.840606 -1.794772,1.159199 -2.608155,0.648165 z m -9.495951,-7.629587 c 0.964083,-0.341383 1.70743,-0.800012 2.529388,-1.560559 1.410596,-1.30522 2.152385,-2.852206 2.265013,-4.723613 C 16.537035,8.4177821 16.352786,7.4618172 15.754894,6.2263281 14.748292,4.1462832 12.962015,2.7768945 10.681992,2.3373675 9.5623137,2.1215338 9.0003289,2.1239183 7.9370422,2.3486553 5.770909,2.80723 3.8834795,4.2903418 2.9255675,6.2865759 1.7938616,8.6449741 1.996765,11.215467 3.4878563,13.409927 c 0.9150223,1.346658 2.5462873,2.477722 4.1688244,2.890526 0.9261051,0.235615 3.1085923,0.13941 4.0003443,-0.176384 z"
     style="fill:#73c2fb;fill-opacity:1;stroke:none;stroke-width:1.50000036;stroke-opacity:1" />
</svg>
