<svg id="stroke" xmlns="http://www.w3.org/2000/svg" viewBox="0 0 80 35"><defs><style>.cls-1{fill:#545454;}</style></defs><title>Icons</title><g id="New_Post"><path class="cls-1" d="M53.67,16.41A1.64,1.64,0,0,0,52,18.05V31.72H25.78V5.47H39.45a1.64,1.64,0,1,0,0-3.28H24.69A2.19,2.19,0,0,0,22.5,4.38V32.81A2.19,2.19,0,0,0,24.69,35H53.13a2.19,2.19,0,0,0,2.18-2.19V18.05A1.63,1.63,0,0,0,53.67,16.41ZM57.12,5.09,52.41.38a1.32,1.32,0,0,0-1.85,0L32.34,18.59v6.57h6.57L57.12,6.94a1.32,1.32,0,0,0,0-1.85ZM37.81,21.88H35.63V19.69L51.48,3.83,53.67,6Z"/></g></svg>