<svg id="stroke" xmlns="http://www.w3.org/2000/svg" viewBox="0 0 80 35"><defs><style>.cls-1{fill:#545454;}</style></defs><title>Icons</title><path class="cls-1" d="M43.18,1.59a4.05,4.05,0,0,0-2.38.8V.8a.8.8,0,1,0-1.6,0V2.39a4.05,4.05,0,0,0-2.38-.8.76.76,0,0,0-.8.8.75.75,0,0,0,.8.79A2.34,2.34,0,0,1,39.2,5.57a.8.8,0,0,0,1.6,0,2.34,2.34,0,0,1,2.38-2.39.75.75,0,0,0,.8-.79A.76.76,0,0,0,43.18,1.59Z"/><path class="cls-1" d="M53.28,33.65l-1.59-1.59a.72.72,0,0,0-.55-.24H49.39L44.77,7a.9.9,0,0,0-.55-.64,1,1,0,0,0-.8.16L40.8,8.83V8.75a.8.8,0,1,0-1.6,0V9L36.58,6.6a.82.82,0,0,0-1.35.48L30.61,31.82H28.86a.72.72,0,0,0-.55.24l-1.59,1.59a.76.76,0,0,0,0,1.11.69.69,0,0,0,.55.24.73.73,0,0,0,.56-.24l1.35-1.35h7.64a.8.8,0,0,0,0-1.59H34.11l5.09-3v5.4a.8.8,0,0,0,1.6,0V28.56L46,31.82H43.18a.8.8,0,0,0,0,1.59h7.64l1.35,1.35a.86.86,0,0,0,.56.24.84.84,0,0,0,.55-.24A.76.76,0,0,0,53.28,33.65ZM35.15,16.07l3.5,2.46L34.11,21.8ZM32.28,31l1.36-7,5,3.18Zm6.92-5.41L35.07,23l4.13-2.94Zm.08-8.67-3.81-2.62,1.11-5.65,2.15,1.91-2.39,2.07a.79.79,0,1,0,1,1.19l1.91-1.59v4.69Zm4.14-8.27.95,5-3.34-3Zm-2.62,3.9,2.78,2.54-1.67,1.44a.68.68,0,0,0-.16,1,1,1,0,0,0,.64.32.82.82,0,0,0,.47-.16l1.91-1.59,1,5.65-5-3.66Zm0,14.08v-6.6l4.21,3L42.7,24.82a.86.86,0,0,0-.15,1.11.7.7,0,0,0,.63.32,1.14,1.14,0,0,0,.48-.16l2.7-2L47.64,31Z"/></svg>