<svg id="stroke" xmlns="http://www.w3.org/2000/svg" viewBox="0 0 80 35"><defs><style>.cls-1{fill:#545454;}</style></defs><title>Icons</title><path class="cls-1" d="M54.65,20.35v-.82a2.44,2.44,0,1,0-4.88,0v.82H46.9a8.46,8.46,0,0,0-1.53-1.46,5.36,5.36,0,0,0-.49-.34v-3.9h1.63a2.44,2.44,0,1,0,0-4.88H43.26V8.14h1.62a.82.82,0,0,0,.82-.81V4.88h4.88a2.44,2.44,0,1,0,0-4.88H29.42a2.44,2.44,0,0,0,0,4.88H34.3V7.33a.82.82,0,0,0,.82.81h1.62V9.77H33.49a2.44,2.44,0,0,0,0,4.88h1.63v3.9a5.36,5.36,0,0,0-.49.34,8.46,8.46,0,0,0-1.53,1.46H30.23v-.82a2.44,2.44,0,1,0-4.88,0v.82H15.58V31.74h9.77v.82a2.44,2.44,0,0,0,4.88,0v-.82H33.1A8.94,8.94,0,0,0,45.68,33a8.28,8.28,0,0,0,1.22-1.22h2.87v.82a2.44,2.44,0,0,0,4.88,0v-.82h9.77V20.35Zm-29.3,9.77H17.21V22h8.14Zm3.25,2.44a.81.81,0,0,1-1.62,0v-13a.81.81,0,0,1,.81-.81.79.79,0,0,1,.58.25.75.75,0,0,1,.23.56Zm.82-29.3a.82.82,0,0,1-.82-.82.82.82,0,0,1,.82-.81H50.58a.82.82,0,0,1,.82.81.82.82,0,0,1-.82.82Zm6.51,3.25V4.88h8.14V6.51Zm5.7,1.63V9.77H38.37V8.14ZM33.49,13a.82.82,0,0,1-.82-.81.79.79,0,0,1,.25-.58.77.77,0,0,1,.57-.23h13a.82.82,0,0,1,.82.81.79.79,0,0,1-.25.58.77.77,0,0,1-.57.23Zm16.28,17.1H46.5a.84.84,0,0,0-.65.32,7.31,7.31,0,0,1-10.23,1.47,7.06,7.06,0,0,1-1.47-1.47.84.84,0,0,0-.65-.32H30.23V22H33.5a.83.83,0,0,0,.65-.33,7.15,7.15,0,0,1,2.19-1.94.78.78,0,0,0,.4-.7V14.65h6.52V19a.78.78,0,0,0,.4.7,7.29,7.29,0,0,1,.74.49,6.83,6.83,0,0,1,1.44,1.45.81.81,0,0,0,.65.33h3.28ZM53,32.56a.81.81,0,0,1-1.62,0v-13a.74.74,0,0,1,.24-.57.78.78,0,0,1,.57-.24.81.81,0,0,1,.81.81Zm9.77-2.44H54.65V22h8.14Z"/></svg>