<svg id="stroke" xmlns="http://www.w3.org/2000/svg" viewBox="0 0 80 35"><defs><style>.cls-1{fill:#545454;}</style></defs><title>Icons</title><path class="cls-1" d="M42.84,0H29a1.92,1.92,0,0,0-1.91,1.91V33.09A1.92,1.92,0,0,0,29,35H51a1.92,1.92,0,0,0,1.91-1.91V9.45a1.9,1.9,0,0,0-.56-1.35L44.18.54A1.9,1.9,0,0,0,42.84,0Zm7.7,32.61H29.46V2.39H40.91V8.81a2.57,2.57,0,0,0,2.57,2.57h7.06ZM43.48,9a.18.18,0,0,1-.18-.18v-5L48.88,9ZM33,15.6a1.49,1.49,0,1,0,1.49,1.49A1.49,1.49,0,0,0,33,15.6Zm2.71.29H48.35v2.4H35.66ZM33,20.39a1.49,1.49,0,1,0,1.49,1.49A1.49,1.49,0,0,0,33,20.39Zm2.71.29H48.35v2.39H35.66ZM33,25.18a1.49,1.49,0,1,0,1.49,1.48A1.49,1.49,0,0,0,33,25.18Zm2.71.29H48.35v2.39H35.66Z"/></svg>